<svg xmlns="http://www.w3.org/2000/svg" viewBox="0 0 960 640" role="img" aria-labelledby="title desc">
  <title id="title">Fitness AI feedback loop</title>
  <desc id="desc">A loop diagram for logging, context, guidance, and reflection in a fitness AI agent.</desc>
  <rect width="960" height="640" fill="#f8fafc"/>
  <circle cx="480" cy="320" r="210" fill="#ffffff" stroke="#d8dee8" stroke-width="3"/>
  <circle cx="480" cy="320" r="82" fill="#101828"/>
  <text x="426" y="312" fill="#ffffff" font-family="Arial, sans-serif" font-size="24" font-weight="700">AI</text>
  <text x="410" y="342" fill="#ffffff" font-family="Arial, sans-serif" font-size="24" font-weight="700">Agent</text>
  <g fill="#eef4ff" stroke="#0f5bd8" stroke-width="3">
    <rect x="374" y="80" width="212" height="82"/>
    <rect x="668" y="278" width="212" height="82"/>
    <rect x="374" y="478" width="212" height="82"/>
    <rect x="80" y="278" width="212" height="82"/>
  </g>
  <g fill="#172033" font-family="Arial, sans-serif" font-size="22" font-weight="700">
    <text x="432" y="130">Log</text>
    <text x="725" y="328">Guide</text>
    <text x="425" y="528">Reflect</text>
    <text x="134" y="328">Context</text>
  </g>
  <g fill="none" stroke="#ef7d32" stroke-width="8" stroke-linecap="round">
    <path d="M585 142c76 28 132 86 158 160"/>
    <path d="M744 360c-25 78-83 139-160 168"/>
    <path d="M374 528c-78-29-135-91-158-170"/>
    <path d="M216 278c26-73 82-130 158-158"/>
  </g>
</svg>
